# xmcd
#
# Track frame offsets: 
#        150
#        12587
#        25487
#        38660
#        51380
#        66557
#        80290
#        92027
#        106167
#        116890
#        141280
#        153365
#        166357
#        189737
#        204250
#        215992
#        230812
#        245060
#        258832
#        274327
#        289585
#        302990
#        318147
#        332217
#
# Disc length: 4609 seconds
#
# Revision: 4
# Processed by: cddbd v1.5.2PL0 Copyright (c) Steve Scherf et al.
# Submitted via: ExactAudioCopyFreeDBPlugin 1.0
#
DISCID=7111ff18
DTITLE=Louis Jordan - Let the Good Times Roll:  The Complete US Decca 
DTITLE=Recordings, 1938-1954 [Bear Family box set]
DYEAR=1992
DGENRE=Rhythm and Blues
TTITLE0=Cole Slaw
TTITLE1=Beans and Corn Bread
TTITLE2=Onion
TTITLE3=Baby's Gonna Go, Bye Bye
TTITLE4=Heed My Warning
TTITLE5=Psycho-Loco
TTITLE6=School Days
TTITLE7=Hungry Man
TTITLE8=Love You 'Til Your Money's Gone Blues
TTITLE9=Saturday Night Fish Fry, Parts 1 and 2
TTITLE10=I Want a Roof Over My Head
TTITLE11=Show Me How (You Milk the Cow)
TTITLE12=Blue Light Boogie, Parts 1 and 2
TTITLE13=Tamburitza Boogie
TTITLE14=(You Dyed Your Hair) Chartreuse
TTITLE15=Lemonade
TTITLE16=It's a Great, Great Pleasure
TTITLE17=You Will Always Have a Friend
TTITLE18=Louisville Lodge Meeting
TTITLE19=Trouble Then Satisfaction
TTITLE20=Crazy Baby
TTITLE21=Life is So Peculiar
TTITLE22=(I'll Be Glad When You're Dead) You, Rascal You
TTITLE23=Teardrops from My Eyes
EXTD=YEAR: 1992
EXTT0=
EXTT1=
EXTT2=
EXTT3=
EXTT4=
EXTT5=
EXTT6=
EXTT7=
EXTT8=
EXTT9=
EXTT10=
EXTT11=
EXTT12=
EXTT13=
EXTT14=
EXTT15=
EXTT16=
EXTT17=
EXTT18=
EXTT19=
EXTT20=
EXTT21=
EXTT22=
EXTT23=
PLAYORDER=
